# xmcd
#
# Track frame offsets: 
#        150
#        18369
#        38586
#        58723
#        78864
#        94674
#        118311
#        138012
#        160303
#        182115
#        197574
#        216981
#        242896
#
# Disc length: 3605 seconds
#
# Revision: 0
# Processed by: cddbd v1.5.1PL2 Copyright (c) Steve Scherf et al.
# Submitted via: ExactAudioCopy v0.95b3
#
DISCID=ac0e130d
DTITLE=Scrapomatic - Scrapomatic
DYEAR=2003
DGENRE=Blues
TTITLE0=Moanin'
TTITLE1=Let the Mermaids Flirt With Me
TTITLE2=I'll Be Around
TTITLE3=Man Gone, Need Drink
TTITLE4=Bubble Gum Song
TTITLE5=Lovefreak
TTITLE6=Found Myself
TTITLE7=Transition
TTITLE8=Apocalypse Blues
TTITLE9=I Need New Blood
TTITLE10=Talkin' Mile
TTITLE11=Can You Help Me?
TTITLE12=Data Track
EXTD=
EXTT0=
EXTT1=
EXTT2=
EXTT3=
EXTT4=
EXTT5=
EXTT6=
EXTT7=
EXTT8=
EXTT9=
EXTT10=
EXTT11=
EXTT12=
PLAYORDER=
